<svg xmlns:ns0="http://www.w3.org/2000/svg" version="1.1" id="Layer_1" x="0px" y="0px" width="100%" height="100%" viewBox="290 200 670 210" enable-background="new 0 0 1408 736" xml:space="preserve" xmlns="http://www.w3.org/2000/svg"><path fill="#D27E42" opacity="1.000000" stroke="none" d=" M870.199768,207.432968   C870.530151,207.486389 870.860535,207.539795 871.428711,207.734497   C876.434326,209.138153 881.202148,210.400543 886.255493,211.843933   C891.237549,213.559662 895.934082,215.094406 900.849609,216.888733   C910.895325,223.908279 920.722046,230.668213 930.689575,237.703217   C931.847534,238.997467 932.864563,240.016678 934.010681,241.362396   C937.656677,246.340958 941.173645,250.993027 944.607056,255.966141   C945.196228,257.110077 945.868958,257.932983 946.424072,259.112671   C948.422424,267.053772 950.538391,274.638092 952.674561,282.648438   C953.325989,287.746887 953.957275,292.419373 954.482300,297.479309   C954.403687,302.544434 954.431335,307.222107 954.307495,312.303528   C954.053955,314.133698 953.951965,315.560120 953.682861,317.342682   C953.162659,320.072418 952.809509,322.446045 952.284058,325.049011   C952.053467,325.839478 951.995178,326.400635 951.815247,327.340363   C950.488647,332.480835 949.283630,337.242706 947.874329,342.210327   C946.637634,344.448181 945.605225,346.480316 944.324951,348.760193   C937.629333,357.792023 932.118713,367.525391 924.461426,375.084076   C917.291260,382.161896 907.846985,386.935883 899.076416,392.754608   C894.140503,394.653625 889.531494,396.521790 884.523071,398.397705   C883.082458,398.621979 882.041382,398.838470 880.587830,399.009583   C875.106384,399.928375 870.037354,400.892548 864.527588,401.837097   C861.748840,401.999786 859.410767,402.182129 856.659302,402.261292   C850.810059,402.522400 845.374146,402.886719 839.482910,403.169342   C834.365051,403.118103 829.702454,403.148529 824.578003,403.086487   C819.067078,403.043488 814.018066,403.093048 808.509705,403.072205   C803.384216,403.075989 798.718079,403.150177 793.594849,403.101929   C788.417542,403.027924 783.697327,403.076355 778.517090,403.054352   C773.388489,403.062622 768.719788,403.141327 763.591187,403.113770   C758.415161,403.033600 753.699036,403.059692 748.522034,403.019043   C743.387268,403.025116 738.713318,403.097961 733.605835,403.062622   C730.378784,402.885498 727.585266,402.816589 724.691650,402.369934   C724.516785,397.033539 724.441956,392.074890 724.510254,386.744202   C727.031494,383.227570 729.409668,380.082947 731.991638,376.746033   C732.491211,376.084381 732.787048,375.615021 733.374023,374.973724   C735.483215,372.220795 737.301208,369.639801 739.377197,366.878357   C740.499084,365.261841 741.363098,363.825806 742.482788,362.167908   C742.960632,361.318634 743.182739,360.691223 743.581665,359.879791   C743.811829,359.534241 743.865173,359.372681 744.175781,359.072998   C744.624390,358.665588 744.836914,358.408752 745.004150,358.125275   C751.988281,346.285614 755.852661,333.308014 759.299133,320.020935   C760.795166,320.014923 761.883179,320.017548 762.976624,320.415741   C760.658630,328.949463 758.605530,337.176971 755.950989,345.205597   C751.560120,358.485535 743.694153,369.973694 734.587341,380.214874   C730.665100,384.625732 728.566101,388.220276 728.854797,393.894653   C729.024231,397.225037 730.126587,398.136414 733.287109,398.106598   C776.031067,397.703583 818.790222,397.949768 861.515442,396.858521   C888.497192,396.169403 910.939575,384.364929 928.621521,363.899628   C942.481628,347.857788 947.523438,328.526794 949.217896,307.624573   C950.273499,305.822876 951.769958,304.391937 951.901428,302.844971   C952.497375,295.833252 952.049011,288.931000 948.700256,282.455719   C947.757996,280.633789 947.697205,278.378235 946.972900,276.417358   C944.400391,269.453247 945.459412,261.266510 939.680481,255.358490   C937.190735,252.813126 934.935608,250.003799 932.837219,247.122604   C931.494934,245.279587 930.951965,242.819489 929.505066,241.093475   C921.788574,231.888168 911.438660,225.754532 901.104980,220.576340   C885.583801,212.798721 868.324890,210.045227 850.962463,210.073257   C806.372742,210.145233 761.783630,210.636826 717.194885,211.034531   C715.325928,211.051193 713.463623,211.809967 711.598206,212.223022   C712.462097,214.058395 713.234863,215.943863 714.209900,217.718216   C715.966797,220.915344 717.844910,224.045898 719.374756,227.081848   C714.097595,221.880905 709.118103,216.802368 703.939270,211.468079   C701.898254,209.821838 700.056519,208.431351 698.550659,206.923340   C700.564392,206.595581 702.242432,206.385345 704.388733,206.255203   C709.603882,206.292130 714.350647,206.248962 719.521973,206.277222   C721.970337,206.254425 723.994202,206.160202 726.454224,206.138489   C729.238342,206.152832 731.586243,206.094666 734.395386,206.140488   C739.596069,206.191757 744.335327,206.139023 749.530762,206.164917   C754.627991,206.208313 759.269104,206.173096 764.375854,206.230576   C769.910889,206.236099 774.980225,206.148895 780.489075,206.144531   C783.624146,206.143494 786.319641,206.059601 789.433960,206.058014   C791.550659,206.096451 793.248657,206.052597 795.408081,206.097229   C800.262817,206.117584 804.656128,206.049438 809.506592,206.062881   C814.627380,206.096268 819.291016,206.048080 824.417114,206.103897   C839.986267,206.616257 855.093018,207.024612 870.199768,207.432968  z" /><path fill="#E07528" opacity="1.000000" stroke="none" d=" M762.971191,320.020142   C761.883179,320.017548 760.795166,320.014923 759.275879,319.792114   C758.844543,319.571899 758.927429,319.119690 758.918945,318.752563   C755.673462,316.645508 752.969910,317.984589 751.051453,322.440552   C745.701233,334.867096 739.482361,346.493073 730.255493,356.856689   C722.247192,365.851776 713.995300,374.343231 704.150024,381.028046   C697.229004,385.727325 689.652954,389.935974 681.775940,392.626282   C673.067322,395.600647 663.825623,395.107483 655.163330,390.852448   C652.960938,389.770599 650.151184,388.502533 649.859131,393.296692   C647.623535,396.036865 646.083862,394.642975 644.522827,392.933533   C642.061035,390.237579 639.551636,387.585114 636.926758,384.711182   C636.574646,384.249481 636.304260,384.074219 635.843933,383.694580   C635.591248,383.000092 635.474426,382.593292 635.695923,382.030151   C635.220703,378.853424 634.407227,375.833008 633.593750,372.812561   C632.796326,372.892090 631.998901,372.971619 631.201477,373.051147   C630.806213,376.177826 630.866516,379.456543 629.887939,382.388519   C628.903137,385.339111 627.503418,388.808167 625.163818,390.483307   C622.239807,392.576874 619.095154,390.340820 617.129150,387.582947   C615.528137,385.337097 614.384277,382.771454 612.891174,380.441467   C610.225281,376.281342 607.448853,372.192078 604.622864,367.847351   C604.426392,367.298492 604.423767,366.974609 604.636169,366.271576   C604.210083,365.083649 603.666870,364.274109 603.123779,363.464569   C602.787720,364.374268 602.451660,365.283936 602.109741,366.497620   C602.003296,367.193237 601.902710,367.584839 601.458984,368.035278   C599.907166,370.085632 598.363708,371.953156 597.569336,374.098053   C596.423157,377.193024 595.352722,379.648438 591.306580,378.138794   C590.288208,377.758789 589.017944,378.053864 587.636597,377.932678   C587.150208,377.410645 586.890564,376.994598 586.718140,376.178772   C583.784668,367.713898 580.763855,359.648804 577.875916,351.938629   C569.204773,353.705688 574.135986,361.414612 570.204956,365.092773   C568.947144,363.996368 568.060852,362.543976 567.018555,362.421783   C557.885742,361.351196 556.629272,354.047119 554.465027,347.252686   C553.651428,344.698242 552.025818,342.402466 550.770386,339.988800   C550.190735,340.191101 549.611145,340.393433 549.031494,340.595764   C549.031494,342.733063 549.031494,344.870331 549.066040,347.338013   C549.033752,348.104980 548.966980,348.541504 548.518433,348.999207   C547.203308,349.597717 545.918335,349.955322 545.396790,350.789978   C542.999695,354.626068 540.054321,355.442627 536.974670,352.365509   C534.675049,350.067780 532.695801,347.314484 531.113159,344.464569   C528.494812,339.749481 526.310974,334.793060 523.598511,329.229523   C522.530457,330.824463 522.208130,331.188293 522.015198,331.611176   C518.178162,340.021545 511.494110,341.095856 506.334747,333.639709   C503.505066,329.550415 502.093811,324.504059 499.762665,320.035492   C498.495850,317.607056 497.016083,314.197113 494.945343,313.595856   C492.976593,313.024170 489.317841,314.906891 487.813293,316.820160   C484.903931,320.519806 482.074768,319.935669 479.419281,317.548309   C476.903839,315.286865 474.982819,312.320679 473.000397,309.522736   C471.206635,306.991028 469.682922,304.267944 467.556213,300.851990   C466.137085,303.251007 465.382690,304.317932 464.837067,305.482666   C461.545685,312.508728 456.408722,313.427429 451.182587,307.611115   C448.885132,305.054199 447.025787,302.053223 445.265717,299.077515   C443.376343,295.883148 441.068573,295.135071 437.510040,296.985779   C433.412964,298.669434 429.689423,300.345703 425.639648,302.024139   C424.878510,302.027344 424.443542,302.028320 424.057251,301.630066   C426.174438,293.847015 425.084747,292.480743 417.796234,293.888123   C409.019836,295.582825 401.519958,291.728516 393.824097,288.679199   C393.393158,288.508423 393.266998,287.568512 393.342468,286.947266   C394.791870,286.612030 395.897766,286.316132 397.279755,286.290527   C402.039673,285.381012 406.523529,284.201233 411.425201,283.002197   C418.888977,282.311676 425.934906,281.640411 433.229340,281.247559   C435.386292,282.033661 437.322083,282.457092 439.198120,283.064911   C444.687927,284.843628 450.984863,284.810364 454.979523,290.335785   C454.986847,291.118042 454.990967,291.565125 455.070618,292.365723   C459.073303,294.582886 465.626556,291.901031 469.455444,287.035065   C472.188599,286.762726 474.479004,286.280579 476.767548,286.289093   C480.203766,286.301880 483.684570,286.384308 487.060730,286.949341   C490.184784,287.472229 490.605835,289.234955 488.673157,291.946533   C486.862823,294.486359 485.585327,297.406006 484.073334,300.158508   C484.354645,300.490479 484.635956,300.822449 484.917236,301.154419   C488.746185,299.859894 492.494141,298.165344 496.424042,297.369202   C501.672302,296.305939 507.049622,295.716705 512.398865,295.424347   C513.819397,295.346649 516.411560,296.957062 516.557678,298.048035   C516.765015,299.595581 515.324829,301.451660 514.372864,303.047211   C512.713562,305.828461 510.563873,308.365997 509.257294,311.290527   C508.476562,313.037994 508.508850,315.737854 512.350708,314.178284   C514.878418,313.910065 517.389038,314.064117 519.235779,313.031281   C526.395813,309.026703 534.078369,308.606262 541.932922,309.053223   C545.423157,309.251831 546.685059,311.058655 545.046265,314.396393   C543.736938,317.063110 542.286133,319.674072 541.213684,322.432495   C540.982239,323.027802 542.102783,324.148712 542.681030,325.325684   C542.872742,326.019531 542.984131,326.415131 543.135986,327.195190   C543.944946,328.073517 544.685730,328.942108 545.486267,329.001190   C551.209961,329.423676 556.980347,329.407959 562.660828,330.125671   C564.932312,330.412689 567.014038,332.200836 569.090881,333.492859   C568.999573,333.680084 568.695251,333.964630 568.547119,334.035919   C568.212952,334.234650 568.074341,334.401520 567.712280,334.811890   C566.709290,336.319000 565.977234,337.622101 564.926514,338.975830   C564.206604,339.459686 563.805481,339.892883 563.404297,340.326080   C564.212891,340.597198 565.183716,341.298676 565.802307,341.065582   C568.588928,340.015381 571.209656,338.513519 574.012878,337.521118   C579.179077,335.692169 583.896362,332.207275 590.014282,333.891296   C593.748901,334.919250 595.398132,337.760101 593.209473,341.080994   C592.309814,342.446014 590.532776,343.325226 589.903320,344.754913   C588.868774,347.104736 588.443909,349.722992 587.924255,351.631958   C597.462585,348.589844 606.038879,345.529633 614.822205,343.276794   C617.078430,342.698120 619.987610,344.664673 622.596802,345.461975   C621.506897,347.717133 620.282410,349.918823 619.359375,352.240295   C618.045959,355.543793 616.953857,358.935303 615.767212,362.289215   C616.212646,362.576050 616.658081,362.862854 617.103455,363.149689   C627.756714,358.083740 637.175171,348.276367 650.255920,353.458069   C650.475464,357.616394 650.518616,361.332825 650.949951,365.003632   C651.096802,366.253571 652.220215,367.388794 652.897339,368.576447   C653.533447,367.286407 654.169495,365.996399 654.855713,364.526001   C654.905762,364.345612 655.117432,364.036835 655.473511,364.024780   C661.220215,359.678223 666.610901,355.343719 672.383423,351.001587   C683.925293,347.672089 694.258545,342.162506 702.111328,333.945099   C714.135315,321.362915 724.835632,307.571838 728.364258,289.606293   C729.756287,282.518677 731.084778,282.052094 738.458191,282.012421   C748.114319,281.960449 757.770935,281.978210 767.427307,281.987579   C773.041748,281.993011 773.499695,282.779236 772.986755,288.405457   C772.617432,292.456390 773.260925,296.606384 772.814636,300.641602   C772.430298,304.115051 775.230042,308.253662 770.536255,311.035187   C766.167969,310.518463 763.256470,311.153107 763.709961,316.196838   C763.821716,317.439087 763.236145,318.744049 762.971191,320.020142  z" /><path fill="#E07528" opacity="1.000000" stroke="none" d=" M719.672363,227.204269   C717.844910,224.045898 715.966797,220.915344 714.209900,217.718216   C713.234863,215.943863 712.462097,214.058395 711.598206,212.223022   C713.463623,211.809967 715.325928,211.051193 717.194885,211.034531   C761.783630,210.636826 806.372742,210.145233 850.962463,210.073257   C868.324890,210.045227 885.583801,212.798721 901.104980,220.576340   C911.438660,225.754532 921.788574,231.888168 929.505066,241.093475   C930.951965,242.819489 931.494934,245.279587 932.837219,247.122604   C934.935608,250.003799 937.190735,252.813126 939.680481,255.358490   C945.459412,261.266510 944.400391,269.453247 946.972900,276.417358   C947.697205,278.378235 947.757996,280.633789 948.700256,282.455719   C952.049011,288.931000 952.497375,295.833252 951.901428,302.844971   C951.769958,304.391937 950.273499,305.822876 948.745972,307.634888   C933.717346,307.978912 919.348206,307.995300 904.827271,307.651764   C903.454224,301.809479 901.711487,296.382996 901.117249,290.833496   C899.764221,278.198303 891.541321,269.796112 883.738708,261.063599   C883.246521,260.512756 882.259888,260.375793 881.480225,260.115143   C879.302368,259.387115 877.080139,258.781128 874.933411,257.972809   C868.908386,255.704178 863.071350,252.659302 856.858704,251.247116   C851.121338,249.942963 844.994263,250.076477 839.037476,250.059830   C803.850769,249.961578 768.663391,250.048325 733.477539,249.849335   C731.964905,249.840775 730.328674,247.767212 728.998169,246.412003   C727.740601,245.131073 726.810303,243.528809 725.694702,241.916763   C725.653320,241.765686 725.764954,241.472961 725.836792,240.980560   C725.937073,238.527695 725.857300,236.558456 726.015564,234.608536   C726.391113,229.981064 724.348145,227.506058 719.698486,227.164673   C719.686462,227.143723 719.672363,227.204269 719.672363,227.204269  z" /><path fill="#B75D21" opacity="1.000000" stroke="none" d=" M904.979126,308.011688   C919.348206,307.995300 933.717346,307.978912 948.558350,307.952209   C947.523438,328.526794 942.481628,347.857788 928.621521,363.899628   C910.939575,384.364929 888.497192,396.169403 861.515442,396.858521   C818.790222,397.949768 776.031067,397.703583 733.287109,398.106598   C730.126587,398.136414 729.024231,397.225037 728.854797,393.894653   C728.566101,388.220276 730.665100,384.625732 734.587341,380.214874   C743.694153,369.973694 751.560120,358.485535 755.950989,345.205597   C758.605530,337.176971 760.658630,328.949463 762.976624,320.415771   C763.236145,318.744049 763.821716,317.439087 763.709961,316.196838   C763.256470,311.153107 766.167969,310.518463 770.553223,311.498901   C771.014465,325.217407 771.002808,338.466400 771.034363,351.715302   C771.049927,358.278687 771.734497,358.955414 778.140137,358.954407   C799.951843,358.951050 821.780029,359.425720 843.567688,358.695953   C853.022095,358.379303 862.638733,356.391785 871.731567,353.663147   C880.456116,351.044983 888.409363,346.008545 894.056458,338.541626   C900.826050,329.590637 903.506348,318.967255 904.979126,308.011688  z" /><path fill="#D27E42" opacity="1.000000" stroke="none" d=" M665.310669,207.239410   C671.709351,209.762436 678.201599,212.077744 684.465759,214.899475   C687.429321,216.234451 689.956238,218.538589 692.797668,220.747406   C692.914307,221.091202 692.806213,221.206055 692.436523,221.142578   C690.228394,220.398102 688.319824,219.862228 686.563293,219.012115   C676.535645,214.158813 666.382751,209.894257 654.921631,209.960068   C638.768616,210.052841 622.614075,210.053436 606.461243,209.946121   C600.673767,209.907684 594.888916,209.225555 589.103088,209.228561   C582.810852,209.231827 576.516907,209.936142 570.227173,209.888184   C562.270447,209.827576 554.303345,208.913345 546.368591,209.183792   C542.854126,209.303574 538.841492,210.701096 536.091980,212.847183   C533.403687,214.945557 532.136536,218.805756 530.067139,221.767899   C525.454468,228.370514 520.644470,234.836761 516.108521,241.490631   C514.882568,243.289047 514.349365,245.559723 513.498169,247.613632   C515.574524,248.414886 517.629578,249.835098 519.730957,249.907272   C527.663940,250.179733 535.611877,250.013275 543.554260,250.012741   C564.037659,250.011353 584.521240,250.043640 605.004395,249.973450   C607.961792,249.963318 610.921082,249.201813 613.873230,249.242599   C620.116455,249.328827 626.466125,250.569717 632.570618,249.779907   C641.863708,248.577499 650.121643,249.850281 657.985413,255.056290   C662.340149,257.939240 665.669189,263.820679 664.809448,269.026764   C663.286377,278.248993 660.538025,282.079254 653.785156,282.899506   C645.578674,283.896332 637.311829,284.682953 629.053650,284.901398   C616.649719,285.229523 604.230530,284.955658 591.818054,284.997589   C586.563416,285.015350 580.330261,283.288361 579.302734,291.546600   C579.242554,292.030090 578.180481,292.312439 577.859619,292.851959   C574.862488,297.891541 571.925354,302.966888 568.823364,308.369904   C568.094360,310.527893 567.512939,312.347900 566.663330,315.007202   C569.305481,315.007202 571.082275,315.006500 572.859070,315.007294   C595.848328,315.017578 618.837524,315.046722 641.826782,315.029724   C651.600830,315.022522 660.356384,318.282837 665.327820,326.593292   C668.633545,332.119263 671.394043,332.382263 676.145142,329.880981   C684.163086,325.659790 691.628601,320.755951 696.138611,312.574463   C697.558655,309.998352 698.238586,307.019806 694.026489,305.531372   C694.012939,304.095764 694.002625,303.051666 694.352234,302.015625   C697.720154,303.826172 700.728149,305.628662 703.721436,307.763977   C702.416565,310.715698 701.126465,313.334625 699.553345,316.118774   C694.502319,320.826111 689.734314,325.368225 684.635864,330.014404   C680.195862,332.380341 676.086304,334.642181 671.578674,336.940369   C667.166870,338.632477 663.985168,338.961487 663.408936,333.169098   C663.232239,331.393768 661.773804,329.745972 660.794373,327.718475   C655.845398,322.373962 649.959656,319.893860 642.506714,320.040771   C637.707520,320.002869 633.365234,320.040558 628.649902,319.987000   C627.514038,319.947235 626.751343,319.998688 625.529663,319.986633   C621.047119,319.961365 617.023438,319.999603 612.542969,319.943268   C607.722717,319.891388 603.359314,319.934082 598.674316,319.881714   C597.911682,319.829926 597.470703,319.873230 596.587769,319.865967   C593.785950,319.822357 591.426086,319.829346 588.716064,319.643799   C581.333801,319.819519 574.301575,320.187775 566.888794,320.381012   C563.701782,319.902740 560.895447,319.599457 558.141907,319.301910   C558.942261,316.882233 559.544739,315.060730 560.461670,313.156250   C561.241699,312.406433 561.707336,311.739532 562.418030,310.839355   C568.496155,301.187286 574.329224,291.768524 580.473206,282.267365   C581.180725,282.021790 581.577393,281.858643 582.432373,281.800690   C588.233582,281.816162 593.576477,281.726410 599.314453,281.727966   C600.511719,281.768188 601.313904,281.717072 602.500000,281.793030   C604.221252,281.849762 605.558655,281.779419 607.259216,281.782379   C608.112000,281.812592 608.601746,281.769501 609.537231,281.847168   C617.282715,281.878693 624.582336,281.789459 632.333740,281.781555   C636.250244,281.693054 639.714905,281.523285 643.617737,281.416443   C645.873230,281.398956 647.697876,281.395813 649.506470,281.223633   C654.827148,280.717163 659.162231,278.348022 661.096680,273.272461   C663.101868,268.011078 662.449341,262.878021 657.979492,258.395935   C655.212891,256.956421 652.632935,255.799408 649.840088,254.464935   C649.086182,254.286942 648.545044,254.286423 647.596558,254.179565   C645.791809,254.091354 644.394531,254.109512 642.545471,254.004349   C637.439941,253.832718 632.786133,253.784409 627.663452,253.623978   C622.415771,253.576370 617.636963,253.640869 612.410767,253.644684   C607.279602,253.845169 602.596008,254.106323 597.452026,254.383789   C592.350830,254.430603 587.710083,254.461075 582.749390,254.211441   C577.638062,253.927872 572.846741,253.924408 567.700562,253.835312   C565.736328,254.053482 564.126892,254.357300 562.339844,254.294861   C560.417175,253.654129 558.667236,253.118484 556.927856,253.151077   C549.973877,253.281372 543.023132,253.588257 535.607910,253.754578   C531.080017,253.745331 527.015503,253.811310 522.493164,253.792969   C517.067688,253.704666 512.100159,253.700714 507.132599,253.696747   C507.141632,252.391220 507.150635,251.085709 507.472900,249.232788   C509.223389,246.236649 510.660645,243.787918 512.404907,241.167542   C517.208313,234.369629 521.704712,227.743378 526.526367,221.031754   C529.301025,217.038223 531.750488,213.130081 534.559937,209.148788   C537.182312,208.133926 539.375366,206.691208 541.723206,206.365891   C545.406799,205.855530 549.194885,206.099243 553.404297,206.117157   C558.608337,206.180695 563.346802,206.150696 568.540161,206.204300   C573.640381,206.220215 578.285645,206.152542 583.395020,206.173218   C588.582397,206.170410 593.305725,206.079254 598.029053,205.988098   C603.032166,206.036240 608.035278,206.084381 613.962280,206.144989   C619.280579,206.142868 623.675049,206.128250 628.069458,206.113647   C633.046814,206.169830 638.024231,206.226013 643.927612,206.287308   C649.304932,206.316040 653.756287,206.339676 658.580688,206.434479   C661.072693,206.750244 663.191711,206.994827 665.310669,207.239410  z" /><path fill="#D28249" opacity="1.000000" stroke="none" d=" M512.028564,314.055389   C508.508850,315.737854 508.476562,313.037994 509.257294,311.290527   C510.563873,308.365997 512.713562,305.828461 514.372864,303.047211   C515.324829,301.451660 516.765015,299.595581 516.557678,298.048035   C516.411560,296.957062 513.819397,295.346649 512.398865,295.424347   C507.049622,295.716705 501.672302,296.305939 496.424042,297.369202   C492.494141,298.165344 488.746185,299.859894 484.917236,301.154419   C484.635956,300.822449 484.354645,300.490479 484.073334,300.158508   C485.585327,297.406006 486.862823,294.486359 488.673157,291.946533   C490.605835,289.234955 490.184784,287.472229 487.060730,286.949341   C483.684570,286.384308 480.203766,286.301880 476.767548,286.289093   C474.479004,286.280579 472.188599,286.762726 469.132019,286.983765   C467.877319,286.549377 467.389648,286.156525 467.138550,285.537170   C468.934296,284.643005 470.493469,283.975372 472.052673,283.307709   C480.230072,281.365356 488.181274,281.893402 495.796143,285.609222   C497.224243,286.306091 498.499847,287.315399 499.537903,288.613495   C497.399902,290.330688 495.569855,291.614838 493.739807,292.898987   C493.979980,293.320190 494.220184,293.741425 494.460388,294.162628   C496.270111,293.538269 498.079834,292.913910 499.889587,292.289551   C502.049103,292.016174 504.208649,291.742767 507.130005,291.462280   C511.749115,292.372528 515.606384,293.289825 519.631592,294.491821   C520.550049,295.130585 521.300476,295.484680 522.260254,295.985840   C522.789368,296.245178 523.109192,296.357483 523.631958,296.741821   C525.186890,298.006622 526.538818,298.999420 526.782043,299.178040   C521.714478,303.717346 516.827454,308.094940 511.968689,312.735016   C512.007507,313.350159 512.018066,313.702759 512.028564,314.055389  z" /><path fill="#D28249" opacity="1.000000" stroke="none" d=" M442.928619,277.300659   C449.211761,277.343750 455.494904,277.386871 462.205261,277.497284   C465.059753,278.448303 467.487061,279.332062 469.509644,280.592468   C466.796539,282.100800 464.488129,283.232422 462.125793,283.930450   C460.647583,282.325684 459.342529,280.384827 457.774506,280.141998   C454.409027,279.620819 450.902344,279.850128 447.463623,280.001770   C442.631195,280.214905 437.808014,280.636627 432.980865,280.969147   C425.934906,281.640411 418.888977,282.311676 411.018402,283.005798   C405.797089,284.025879 401.400391,285.023071 397.003693,286.020264   C395.897766,286.316132 394.791870,286.612030 392.935547,286.945587   C390.593109,287.323334 388.975922,287.574982 387.413330,288.018738   C380.577515,289.960144 373.757568,291.957306 366.970581,293.713257   C367.009308,293.492279 367.102570,293.052856 367.407654,292.967316   C369.147949,292.150085 370.583160,291.418396 372.415894,290.639923   C381.501953,287.842377 390.190430,285.091644 399.165039,282.407013   C400.670593,282.185364 401.890045,281.897583 403.548645,281.623230   C407.351654,280.988831 410.715546,280.341003 414.315735,279.733582   C414.896088,279.738892 415.163116,279.576843 415.647583,279.312988   C416.318573,279.231018 416.695190,279.123901 417.482086,279.046448   C422.236053,278.518036 426.579681,277.959930 431.387604,277.416077   C435.544128,277.387115 439.236359,277.343872 442.928619,277.300659  z" /><path fill="#D27E42" opacity="1.000000" stroke="none" d=" M904.827271,307.651764   C903.506348,318.967255 900.826050,329.590637 894.056458,338.541626   C888.409363,346.008545 880.456116,351.044983 871.731567,353.663147   C862.638733,356.391785 853.022095,358.379303 843.567688,358.695953   C821.780029,359.425720 799.951843,358.951050 778.140137,358.954407   C771.734497,358.955414 771.049927,358.278687 771.034363,351.715302   C771.002808,338.466400 771.014465,325.217407 770.991333,311.504700   C775.230042,308.253662 772.430298,304.115051 772.814636,300.641602   C773.260925,296.606384 772.617432,292.456390 772.986755,288.405457   C773.499695,282.779236 773.041748,281.993011 767.427307,281.987579   C757.770935,281.978210 748.114319,281.960449 738.458191,282.012421   C731.084778,282.052094 729.756287,282.518677 728.364258,289.606293   C724.835632,307.571838 714.135315,321.362915 702.111328,333.945099   C694.258545,342.162506 683.925293,347.672089 672.502319,350.718506   C672.466431,349.877380 672.693726,349.311737 673.179199,348.517700   C683.737915,343.462769 694.040771,338.639893 702.079224,329.770233   C702.871643,329.034760 703.393616,328.434143 704.231323,327.728882   C708.411804,322.107147 712.276550,316.590057 716.370667,310.808655   C717.654297,308.482269 718.946167,306.505188 719.719421,304.342651   C722.367432,296.936920 724.833496,289.466125 727.581543,281.745270   C729.380981,277.060150 733.345032,280.149200 736.341064,278.964386   C737.857483,278.993225 738.963989,278.948669 740.521240,279.013062   C749.290833,278.979584 757.609558,278.837189 766.369141,278.796906   C768.581238,278.936676 770.486755,278.578674 772.086914,279.121155   C773.751038,279.685364 775.120239,281.119568 776.535645,282.618408   C776.385315,287.717590 776.317627,292.371704 776.167664,297.454041   C776.148804,299.915070 776.212280,301.947906 776.164917,304.377563   C775.965881,319.606415 775.945190,334.439331 775.744568,349.269775   C775.691101,353.227142 777.015686,354.907959 781.433105,353.797180   C791.218079,353.856750 800.600159,353.842743 810.432129,353.932556   C815.202759,353.825500 819.523621,353.614563 824.263428,353.524384   C829.781433,353.685944 834.880554,353.726746 840.389282,353.863708   C845.522156,353.657440 850.245239,353.354980 855.369812,353.106689   C857.837708,352.721283 859.904175,352.281708 862.354492,351.888977   C869.305664,348.718567 875.872986,345.501312 882.715027,342.206665   C883.722046,341.539642 884.454285,340.950012 885.514893,340.253265   C888.875061,335.755646 891.906921,331.365112 895.198303,326.718994   C896.590149,321.639435 897.722351,316.815430 899.005249,311.602844   C899.086548,306.483673 899.017273,301.753082 898.998535,296.615356   C898.858276,295.140808 898.667419,294.073425 898.558716,292.660522   C898.097473,290.553680 897.554016,288.792419 896.993408,286.662903   C893.557617,280.674225 891.087158,274.087799 886.536316,269.621002   C874.617310,257.922272 859.163879,254.605164 842.640869,253.801849   C820.481384,253.445328 798.659058,253.290817 776.836487,253.201553   C772.520752,253.183914 768.203979,253.417130 763.446655,253.429581   C759.363647,253.406708 755.721619,253.488907 751.628540,253.414536   C743.756592,253.378265 736.335693,253.498581 728.639832,253.487549   C728.004211,253.169769 727.643677,252.983353 727.267456,252.384109   C726.746582,248.670135 726.241333,245.368988 725.736084,242.067841   C726.810303,243.528809 727.740601,245.131073 728.998169,246.412003   C730.328674,247.767212 731.964905,249.840775 733.477539,249.849335   C768.663391,250.048325 803.850769,249.961578 839.037476,250.059830   C844.994263,250.076477 851.121338,249.942963 856.858704,251.247116   C863.071350,252.659302 868.908386,255.704178 874.933411,257.972809   C877.080139,258.781128 879.302368,259.387115 881.480225,260.115143   C882.259888,260.375793 883.246521,260.512756 883.738708,261.063599   C891.541321,269.796112 899.764221,278.198303 901.117249,290.833496   C901.711487,296.382996 903.454224,301.809479 904.827271,307.651764  z" /><path fill="#D28249" opacity="1.000000" stroke="none" d=" M437.883545,296.978424   C441.068573,295.135071 443.376343,295.883148 445.265717,299.077515   C447.025787,302.053223 448.885132,305.054199 451.182587,307.611115   C456.408722,313.427429 461.545685,312.508728 464.837067,305.482666   C465.382690,304.317932 466.137085,303.251007 467.556213,300.851990   C469.682922,304.267944 471.206635,306.991028 473.000397,309.522736   C474.982819,312.320679 476.903839,315.286865 479.419281,317.548309   C482.074768,319.935669 484.903931,320.519806 487.813293,316.820160   C489.317841,314.906891 492.976593,313.024170 494.945343,313.595856   C497.016083,314.197113 498.495850,317.607056 499.762665,320.035492   C502.093811,324.504059 503.505066,329.550415 506.334747,333.639709   C511.494110,341.095856 518.178162,340.021545 522.015198,331.611176   C522.208130,331.188293 522.530457,330.824463 523.598511,329.229523   C526.310974,334.793060 528.494812,339.749481 531.113159,344.464569   C532.695801,347.314484 534.675049,350.067780 536.974670,352.365509   C540.054321,355.442627 542.999695,354.626068 545.396790,350.789978   C545.918335,349.955322 547.203308,349.597717 548.614502,349.412140   C549.667725,352.894287 550.243103,355.984650 550.816406,359.364532   C551.085999,360.149261 551.357544,360.644470 551.613403,361.367828   C551.577087,361.904755 551.615906,362.205933 551.377869,362.514435   C537.093384,359.097412 527.923828,350.435028 524.088074,335.934845   C523.502808,336.271057 522.917542,336.607239 522.332214,336.943451   C522.184082,340.129700 522.035950,343.315948 521.533264,346.499908   C505.651367,342.429230 497.727722,331.538025 494.241150,316.117401   C493.109680,320.408264 493.171051,324.259521 493.062134,328.105988   C493.037964,328.958862 492.412872,329.794678 491.815979,330.408997   C488.630524,329.032104 485.693481,327.884583 482.523193,326.463318   C474.543274,321.824341 472.093933,313.407349 468.154205,306.130310   C467.690918,306.331451 467.227631,306.532593 466.764343,306.733704   C467.005371,310.731628 467.246368,314.729553 467.527313,319.389374   C462.347382,317.206787 457.118500,315.759949 452.766602,312.953308   C448.565094,310.243744 445.268066,306.131744 440.690491,301.800079   C441.080322,304.870697 441.315735,306.725098 441.609528,309.039429   C437.519989,308.179840 433.706604,307.378296 429.580261,306.407776   C425.208496,305.410248 421.149719,304.581665 416.894592,303.598450   C416.376678,303.299988 416.152679,303.063690 416.316345,302.515961   C419.073853,302.207764 421.541229,302.118530 424.008606,302.029297   C424.443542,302.028320 424.878510,302.027344 425.741882,302.396637   C435.215912,307.087708 437.943970,305.739532 437.883545,296.978424  z" /><path fill="#D28249" opacity="1.000000" stroke="none" d=" M654.805603,364.706360   C654.169495,365.996399 653.533447,367.286407 652.897339,368.576447   C652.220215,367.388794 651.096802,366.253571 650.949951,365.003632   C650.518616,361.332825 650.475464,357.616394 650.255920,353.458069   C637.175171,348.276367 627.756714,358.083740 617.103455,363.149689   C616.658081,362.862854 616.212646,362.576050 615.767212,362.289215   C616.953857,358.935303 618.045959,355.543793 619.359375,352.240295   C620.282410,349.918823 621.506897,347.717133 622.596802,345.461975   C619.987610,344.664673 617.078430,342.698120 614.822205,343.276794   C606.038879,345.529633 597.462585,348.589844 587.924255,351.631958   C588.443909,349.722992 588.868774,347.104736 589.903320,344.754913   C590.532776,343.325226 592.309814,342.446014 593.209473,341.080994   C595.398132,337.760101 593.748901,334.919250 590.014282,333.891296   C583.896362,332.207275 579.179077,335.692169 574.012878,337.521118   C571.209656,338.513519 568.588928,340.015381 565.802307,341.065582   C565.183716,341.298676 564.212891,340.597198 563.404297,340.326080   C563.805481,339.892883 564.206604,339.459686 565.260376,338.914429   C570.040771,336.686279 574.112122,334.450226 578.307617,332.478119   C588.161621,327.846069 597.401001,329.497437 606.522949,335.312988   C600.900574,338.055603 596.275085,341.290619 592.576782,346.308258   C600.293274,343.992706 607.160278,341.932068 614.391479,339.948364   C615.497559,340.058685 616.239380,340.092041 617.268555,340.342834   C619.723938,340.937927 621.892090,341.315643 624.404297,341.822937   C626.937927,343.335968 630.924133,342.426056 630.492065,346.795532   C625.499634,349.678619 621.438965,353.025757 618.892700,359.278931   C623.857422,356.158966 627.929932,353.599640 632.380371,350.987976   C636.203857,350.034149 639.649414,349.132660 643.509766,348.284485   C648.526367,348.942383 653.128113,349.546997 657.795288,350.498169   C656.218384,354.994232 654.544678,359.132263 653.024597,363.326019   C652.946106,363.542480 654.181763,364.235291 654.805603,364.706360  z" /><path fill="#D9752F" opacity="1.000000" stroke="none" d=" M424.057251,301.630066   C421.541229,302.118530 419.073853,302.207764 415.933533,302.555817   C414.524719,302.620728 413.788910,302.426788 412.933441,301.994690   C411.892548,301.784943 410.971313,301.813416 409.670380,301.899780   C407.541138,301.680267 405.791565,301.402863 403.824707,300.847046   C402.094604,300.653320 400.581848,300.738007 398.607300,300.881073   C394.431549,300.990936 390.717590,301.042450 386.562622,301.009399   C383.733337,300.914581 381.345093,300.904327 378.689880,300.638428   C376.242188,300.780426 374.061462,301.178070 371.917297,301.698273   C371.953888,301.820831 372.013580,302.069550 371.672974,301.993652   C370.868073,301.893127 370.403778,301.868530 369.751343,301.629272   C368.695007,301.758331 367.826782,302.102112 366.636963,302.579407   C365.855072,302.746674 365.394745,302.780457 364.719849,302.592682   C363.801575,302.011658 363.097931,301.652191 362.372375,301.281525   C363.953064,298.742828 365.450714,296.337433 366.958099,293.940369   C366.967865,293.948669 366.931854,293.934265 366.931854,293.934265   C373.757568,291.957306 380.577515,289.960144 387.413330,288.018738   C388.975922,287.574982 390.593109,287.323334 392.592072,286.984924   C393.266998,287.568512 393.393158,288.508423 393.824097,288.679199   C401.519958,291.728516 409.019836,295.582825 417.796234,293.888123   C425.084747,292.480743 426.174438,293.847015 424.057251,301.630066  z" /><path fill="#D28249" opacity="1.000000" stroke="none" d=" M758.919006,318.752563   C757.544434,320.520630 755.823792,321.717316 754.832947,323.355408   C748.209045,334.306396 741.740723,345.351501 735.122070,356.691406   C724.777100,369.414246 712.795227,379.764923 698.792908,387.728058   C697.061523,388.712646 695.285400,389.618561 692.980652,390.789062   C692.167908,391.242889 691.904480,391.468567 691.356567,391.734253   C690.737549,391.951324 690.403076,392.128418 689.701050,392.314148   C677.229004,397.690338 665.150513,399.283051 653.064575,392.205139   C652.706848,391.995697 651.814941,392.698608 650.886047,392.982178   C650.409302,392.990265 650.218628,392.992279 650.027954,392.994293   C650.151184,388.502533 652.960938,389.770599 655.163330,390.852448   C663.825623,395.107483 673.067322,395.600647 681.775940,392.626282   C689.652954,389.935974 697.229004,385.727325 704.150024,381.028046   C713.995300,374.343231 722.247192,365.851776 730.255493,356.856689   C739.482361,346.493073 745.701233,334.867096 751.051453,322.440552   C752.969910,317.984589 755.673462,316.645508 758.919006,318.752563  z" /><path fill="#D28249" opacity="1.000000" stroke="none" d=" M549.031494,347.007629   C549.031494,344.870331 549.031494,342.733063 549.031494,340.595764   C549.611145,340.393433 550.190735,340.191101 550.770386,339.988800   C552.025818,342.402466 553.651428,344.698242 554.465027,347.252686   C556.629272,354.047119 557.885742,361.351196 567.018555,362.421783   C568.060852,362.543976 568.947144,363.996368 570.204956,365.092773   C574.135986,361.414612 569.204773,353.705688 577.875916,351.938629   C580.763855,359.648804 583.784668,367.713898 586.444275,376.066345   C585.566956,376.069519 585.050781,375.785278 584.430725,375.176147   C581.629456,369.367004 578.932129,363.882690 575.919983,357.758301   C571.832764,363.301147 576.221375,368.410431 575.619751,374.423645   C573.004211,373.454987 570.615112,372.570190 567.983887,371.457825   C557.243958,365.574829 553.484802,355.454071 550.693481,344.307129   C549.882935,345.624207 549.457214,346.315918 549.031494,347.007629  z" /><path fill="#D27E42" opacity="1.000000" stroke="none" d=" M605.455200,374.077087   C605.207581,372.363312 604.960022,370.649567 604.715576,368.504486   C607.448853,372.192078 610.225281,376.281342 612.891174,380.441467   C614.384277,382.771454 615.528137,385.337097 617.129150,387.582947   C619.095154,390.340820 622.239807,392.576874 625.163818,390.483307   C627.503418,388.808167 628.903137,385.339111 629.887939,382.388519   C630.866516,379.456543 630.806213,376.177826 631.201477,373.051147   C631.998901,372.971619 632.796326,372.892090 633.593750,372.812561   C634.407227,375.833008 635.220703,378.853424 635.695923,382.030151   C634.488892,380.507172 633.620178,378.827850 632.483459,376.630371   C631.077515,384.912170 632.717651,391.910126 637.028687,398.655640   C624.202148,397.411438 614.988647,390.998718 608.520325,379.979706   C608.298767,378.975647 607.909729,378.480530 607.520691,377.985413   C607.102844,377.130859 606.684937,376.276306 606.071167,374.956360   C605.761169,374.326752 605.621155,374.188812 605.455200,374.077087  z" /><path fill="#D27E42" opacity="1.000000" stroke="none" d=" M512.350708,314.178284   C512.018066,313.702759 512.007507,313.350159 512.345520,312.623413   C520.818359,309.709198 528.942688,307.169128 537.451050,304.736542   C540.562622,305.552155 543.290039,306.260254 546.236694,307.219818   C548.326721,308.253632 550.197510,309.035950 552.083618,310.177612   C552.011047,311.008331 551.923279,311.479706 551.566406,312.140930   C548.398499,316.563019 545.499512,320.795258 542.600586,325.027496   C542.102783,324.148712 540.982239,323.027802 541.213684,322.432495   C542.286133,319.674072 543.736938,317.063110 545.046265,314.396393   C546.685059,311.058655 545.423157,309.251831 541.932922,309.053223   C534.078369,308.606262 526.395813,309.026703 519.235779,313.031281   C517.389038,314.064117 514.878418,313.910065 512.350708,314.178284  z" /><path fill="#D9752F" opacity="1.000000" stroke="none" d=" M462.125793,283.930450   C460.961639,285.431946 459.743591,286.499847 458.007843,287.889557   C456.652222,288.807770 455.814270,289.404175 454.976318,290.000610   C450.984863,284.810364 444.687927,284.843628 439.198120,283.064911   C437.322083,282.457092 435.386292,282.033661 433.229340,281.247559   C437.808014,280.636627 442.631195,280.214905 447.463623,280.001770   C450.902344,279.850128 454.409027,279.620819 457.774506,280.141998   C459.342529,280.384827 460.647583,282.325684 462.125793,283.930450  z" /><path fill="#D28249" opacity="1.000000" stroke="none" d=" M601.458984,368.035278   C602.594910,374.253662 603.387634,380.530853 604.458801,387.333069   C604.753479,388.205963 604.769653,388.553833 604.454712,388.884705   C603.465149,388.777283 602.806702,388.686859 601.884521,388.400391   C599.828369,387.358887 598.036072,386.513397 596.022339,385.422119   C593.155029,382.797119 590.509216,380.417908 587.863403,378.038696   C589.017944,378.053864 590.288208,377.758789 591.306580,378.138794   C595.352722,379.648438 596.423157,377.193024 597.569336,374.098053   C598.363708,371.953156 599.907166,370.085632 601.458984,368.035278  z" /><path fill="#D27E42" opacity="1.000000" stroke="none" d=" M566.015015,326.045593   C566.765320,326.147919 567.515686,326.250244 568.741089,326.734741   C570.586487,328.142120 571.956848,329.167358 573.327148,330.192596   C572.143555,331.139465 570.959900,332.086334 569.479248,333.169434   C567.014038,332.200836 564.932312,330.412689 562.660828,330.125671   C556.980347,329.407959 551.209961,329.423676 545.486267,329.001190   C544.685730,328.942108 543.944946,328.073517 543.522217,327.113647   C546.913086,326.413055 549.958252,326.178436 553.462769,326.012054   C557.953064,326.068695 561.984070,326.057159 566.015015,326.045593  z" /><path fill="#D27E42" opacity="1.000000" stroke="none" d=" M645.731140,400.120117   C642.834961,395.697388 639.938782,391.274689 637.021606,386.194183   C637.021301,385.329041 637.041870,385.121643 637.062378,384.914246   C639.551636,387.585114 642.061035,390.237579 644.522827,392.933533   C646.083862,394.642975 647.623535,396.036865 649.859131,393.296692   C650.218628,392.992279 650.409302,392.990265 651.120972,393.221130   C652.426392,394.793945 653.210876,396.133881 653.539917,397.625397   C650.633362,398.558014 648.182251,399.339081 645.731140,400.120117  z" /><path fill="#D9752F" opacity="1.000000" stroke="none" d=" M437.510040,296.985779   C437.943970,305.739532 435.215912,307.087708 426.068085,302.394440   C429.689423,300.345703 433.412964,298.669434 437.510040,296.985779  z" /><path fill="#D28249" opacity="1.000000" stroke="none" d=" M655.473511,364.024780   C658.711975,359.940765 662.306580,355.844696 666.386963,351.362610   C668.228760,350.245422 669.584717,349.514252 671.268799,348.841309   C672.038269,348.848389 672.479675,348.797211 672.921021,348.746033   C672.693726,349.311737 672.466431,349.877380 672.120361,350.726135   C666.610901,355.343719 661.220215,359.678223 655.473511,364.024780  z" /><path fill="#D9752F" opacity="1.000000" stroke="none" d=" M457.925720,289.350220   C460.677673,288.206543 463.429596,287.062866 466.541748,285.841431   C467.389648,286.156525 467.877319,286.549377 468.688416,286.993591   C465.626556,291.901031 459.073303,294.582886 455.395996,292.329987   C456.405823,291.077240 457.165771,290.213745 457.925720,289.350220  z" /><path fill="#D9752F" opacity="1.000000" stroke="none" d=" M397.279755,286.290527   C401.400391,285.023071 405.797089,284.025879 410.600586,283.025055   C406.523529,284.201233 402.039673,285.381012 397.279755,286.290527  z" /><path fill="#D28249" opacity="1.000000" stroke="none" d=" M604.636169,366.271576   C603.926025,366.488770 603.332886,366.327545 602.427734,366.179993   C602.451660,365.283936 602.787720,364.374268 603.123779,363.464569   C603.666870,364.274109 604.210083,365.083649 604.636169,366.271576  z" /><path fill="#D28249" opacity="1.000000" stroke="none" d=" M457.991089,289.015442   C457.165771,290.213745 456.405823,291.077240 455.320496,291.976471   C454.990967,291.565125 454.986847,291.118042 454.979523,290.335785   C455.814270,289.404175 456.652222,288.807770 457.783447,288.105042   C458.069946,288.226044 458.063171,288.453339 457.991089,289.015442  z" /><path fill="#D28249" opacity="1.000000" stroke="none" d=" M636.926758,384.711182   C637.041870,385.121643 637.021301,385.329041 636.965820,385.847900   C636.609314,385.643494 636.287781,385.127655 635.973022,384.297028   C636.304260,384.074219 636.574646,384.249481 636.926758,384.711182  z" /><path fill="#D28249" opacity="1.000000" stroke="none" d=" M568.547119,334.035919   C568.735596,334.255280 568.625244,334.467407 568.173706,334.604401   C568.074341,334.401520 568.212952,334.234650 568.547119,334.035919  z" /><path fill="#D27E42" opacity="1.000000" stroke="none" d=" M725.836792,240.980560   C725.261230,240.487411 724.757507,239.501877 724.062683,237.881714   C722.384705,234.397034 720.897827,231.546951 719.410889,228.696869   C719.465820,228.312805 719.520813,227.928726 719.643127,227.365143   C724.348145,227.506058 726.391113,229.981064 726.015564,234.608536   C725.857300,236.558456 725.937073,238.527695 725.836792,240.980560  z" /><path fill="#D27E42" opacity="1.000000" stroke="none" d=" M712.756531,252.130188   C712.827942,256.785736 712.899414,261.441284 712.933350,266.969543   C711.781616,272.542816 710.667358,277.243317 709.313843,282.067108   C708.659973,282.982361 708.245300,283.774323 707.546204,284.721252   C706.832703,285.581451 706.403564,286.286652 705.701782,287.153198   C704.554993,288.507629 703.680847,289.700714 702.551880,291.025269   C701.808655,291.437805 701.320190,291.718903 700.620239,291.770935   C703.151733,285.241669 706.624146,279.489563 708.283386,272.429932   C709.942200,265.371826 710.749329,258.769318 709.655334,251.829803   C709.343750,249.853470 707.490295,248.144958 707.059082,246.158356   C705.513428,239.039062 702.524048,232.827667 697.282837,227.642410   C695.456055,225.835144 694.279663,223.370483 692.806213,221.206055   C692.806213,221.206055 692.914307,221.091202 692.968445,221.033875   C693.762451,221.251450 694.502258,221.526367 695.507141,221.961761   C699.684082,227.268280 703.596008,232.414322 707.830933,238.129272   C709.688171,243.175507 711.222351,247.652847 712.756531,252.130188  z" /><path fill="#E07528" opacity="1.000000" stroke="none" d=" M692.436523,221.142578   C694.279663,223.370483 695.456055,225.835144 697.282837,227.642410   C702.524048,232.827667 705.513428,239.039062 707.059082,246.158356   C707.490295,248.144958 709.343750,249.853470 709.655334,251.829803   C710.749329,258.769318 709.942200,265.371826 708.283386,272.429932   C706.624146,279.489563 703.151733,285.241669 700.521484,292.029602   C700.025879,293.223480 699.417542,293.929626 698.476807,294.751007   C695.827454,296.403656 693.510559,297.941132 690.481628,299.951172   C691.974731,300.825775 692.983521,301.416687 693.992310,302.007599   C694.002625,303.051666 694.012939,304.095764 693.604614,305.552002   C691.225342,305.707092 689.254578,305.167847 687.305786,305.237885   C673.080505,305.748871 658.863525,306.506226 644.636475,306.943878   C628.890442,307.428192 613.137634,307.722351 597.385742,307.969635   C587.916138,308.118347 578.442688,308.019501 568.970947,308.031891   C571.925354,302.966888 574.862488,297.891541 577.859619,292.851959   C578.180481,292.312439 579.242554,292.030090 579.302734,291.546600   C580.330261,283.288361 586.563416,285.015350 591.818054,284.997589   C604.230530,284.955658 616.649719,285.229523 629.053650,284.901398   C637.311829,284.682953 645.578674,283.896332 653.785156,282.899506   C660.538025,282.079254 663.286377,278.248993 664.809448,269.026764   C665.669189,263.820679 662.340149,257.939240 657.985413,255.056290   C650.121643,249.850281 641.863708,248.577499 632.570618,249.779907   C626.466125,250.569717 620.116455,249.328827 613.873230,249.242599   C610.921082,249.201813 607.961792,249.963318 605.004395,249.973450   C584.521240,250.043640 564.037659,250.011353 543.554260,250.012741   C535.611877,250.013275 527.663940,250.179733 519.730957,249.907272   C517.629578,249.835098 515.574524,248.414886 513.498169,247.613632   C514.349365,245.559723 514.882568,243.289047 516.108521,241.490631   C520.644470,234.836761 525.454468,228.370514 530.067139,221.767899   C532.136536,218.805756 533.403687,214.945557 536.091980,212.847183   C538.841492,210.701096 542.854126,209.303574 546.368591,209.183792   C554.303345,208.913345 562.270447,209.827576 570.227173,209.888184   C576.516907,209.936142 582.810852,209.231827 589.103088,209.228561   C594.888916,209.225555 600.673767,209.907684 606.461243,209.946121   C622.614075,210.053436 638.768616,210.052841 654.921631,209.960068   C666.382751,209.894257 676.535645,214.158813 686.563293,219.012115   C688.319824,219.862228 690.228394,220.398102 692.436523,221.142578  z" /><path fill="#B75D21" opacity="1.000000" stroke="none" d=" M568.823364,308.369904   C578.442688,308.019501 587.916138,308.118347 597.385742,307.969635   C613.137634,307.722351 628.890442,307.428192 644.636475,306.943878   C658.863525,306.506226 673.080505,305.748871 687.305786,305.237885   C689.254578,305.167847 691.225342,305.707092 693.607788,305.943542   C698.238586,307.019806 697.558655,309.998352 696.138611,312.574463   C691.628601,320.755951 684.163086,325.659790 676.145142,329.880981   C671.394043,332.382263 668.633545,332.119263 665.327820,326.593292   C660.356384,318.282837 651.600830,315.022522 641.826782,315.029724   C618.837524,315.046722 595.848328,315.017578 572.859070,315.007294   C571.082275,315.006500 569.305481,315.007202 566.663330,315.007202   C567.512939,312.347900 568.094360,310.527893 568.823364,308.369904  z" /><path fill="#D28249" opacity="1.000000" stroke="none" d=" M364.719849,302.592682   C356.835144,304.733704 348.735840,306.653168 340.656250,308.195984   C341.080597,307.439636 341.485229,307.059937 342.215424,306.607391   C347.046143,303.766907 351.551331,300.999268 356.349945,298.172546   C357.142395,297.797089 357.641418,297.480713 358.140442,297.164368   C360.833984,296.103088 363.527496,295.041779 366.584656,293.956299   C365.450714,296.337433 363.953064,298.742828 362.372375,301.281525   C363.097931,301.652191 363.801575,302.011658 364.719849,302.592682  z" /><path fill="#D28249" opacity="1.000000" stroke="none" d=" M378.689880,300.638428   C376.871368,301.181854 374.785950,301.469604 372.290588,301.666565   C374.061462,301.178070 376.242188,300.780426 378.689880,300.638428  z" /><path fill="#D28249" opacity="1.000000" stroke="none" d=" M402.223572,301.770081   C401.131470,301.649811 400.315399,301.462952 399.284180,301.049408   C400.581848,300.738007 402.094604,300.653320 403.824707,300.847046   C403.527863,301.318176 403.013763,301.510834 402.223572,301.770081  z" /><path fill="#D28249" opacity="1.000000" stroke="none" d=" M369.751343,301.629272   C369.154053,302.115173 368.368652,302.386383 367.270935,302.551758   C367.826782,302.102112 368.695007,301.758331 369.751343,301.629272  z" /><path fill="#D28249" opacity="1.000000" stroke="none" d=" M412.933441,301.994690   C412.212769,302.249207 411.372437,302.265533 410.291077,302.061890   C410.971313,301.813416 411.892548,301.784943 412.933441,301.994690  z" /><path fill="#D28249" opacity="1.000000" stroke="none" d=" M573.641907,330.102875   C571.956848,329.167358 570.586487,328.142120 569.106689,326.833649   C572.020447,326.550415 575.043701,326.550415 578.066956,326.550415   C578.147095,326.846405 578.227234,327.142426 578.307373,327.438416   C576.857117,328.296661 575.406921,329.154907 573.641907,330.102875  z" /><path fill="#D28249" opacity="1.000000" stroke="none" d=" M653.539917,397.625397   C656.734375,398.983856 659.473267,400.493866 662.399780,402.376831   C661.440735,403.045959 660.294128,403.342102 658.721069,403.500610   C655.245483,402.770386 652.196472,402.177826 648.879456,401.385468   C647.725952,401.169373 646.840454,401.153046 645.943115,401.083130   C645.931274,401.029541 645.825989,401.060516 645.825989,401.060516   C645.825989,401.060516 645.711548,400.595490 645.721313,400.357819   C648.182251,399.339081 650.633362,398.558014 653.539917,397.625397  z" /><path fill="#D28249" opacity="1.000000" stroke="none" d=" M607.442993,378.281616   C607.909729,378.480530 608.298767,378.975647 608.551270,379.639343   C608.064880,379.397858 607.715088,378.987823 607.442993,378.281616  z" /><path fill="#D28249" opacity="1.000000" stroke="none" d=" M605.413208,374.266022   C605.621155,374.188812 605.761169,374.326752 605.955017,374.615234   C605.739563,374.816895 605.518372,374.722046 605.413208,374.266022  z" /><path fill="#D9752F" opacity="1.000000" stroke="none" d=" M597.569885,399.775269   C599.117493,400.389709 600.241394,400.939240 601.234619,401.763062   C600.071411,402.350769 599.038818,402.664246 597.575806,402.931274   C592.091675,403.365753 587.037964,403.846680 581.534790,404.214111   C577.050659,404.032410 573.015991,403.964233 568.672363,403.638794   C563.246460,402.905975 558.129517,402.430389 552.638000,401.799652   C542.158508,399.035858 532.053528,396.427216 521.684143,393.580200   C516.694763,391.741455 511.969818,390.141113 507.064575,388.351746   C506.387695,388.037659 505.891113,387.912598 505.233215,387.570404   C504.731110,387.287598 504.390350,387.221863 503.714233,386.991089   C501.267853,386.032654 499.156830,385.239349 496.817871,384.210968   C490.919220,381.575409 485.248474,379.174927 479.345215,376.494873   C474.754913,373.750000 470.397125,371.284668 466.013428,368.464844   C464.065979,366.476257 462.348480,364.472229 460.184052,363.278412   C454.064636,359.903015 453.653656,356.043335 459.509735,352.380219   C461.401031,351.197144 463.723755,350.310516 465.927917,350.095245   C472.315460,349.471436 478.743042,349.257446 485.109863,348.880463   C485.064850,348.878296 485.110809,348.800690 485.137939,349.180786   C486.475342,350.031342 487.785553,350.501801 489.395660,350.969025   C490.139313,351.272583 490.583069,351.579346 491.071381,352.241882   C493.483063,353.657623 495.850250,354.717529 498.217407,355.777435   C498.217407,355.777435 498.050140,355.754791 498.177795,356.003540   C499.536316,356.509491 499.929169,360.232849 501.970337,357.138275   C502.523315,357.300171 503.076324,357.462067 503.817505,358.224396   C508.145172,365.244751 515.323669,366.698547 521.642761,369.529694   C522.059387,369.716309 522.846741,369.075531 523.799683,368.857788   C538.403503,375.671051 552.669250,382.446136 567.171082,389.472809   C572.249695,391.543671 577.092285,393.362976 581.934814,395.182281   C587.005249,396.691620 592.075745,398.200989 597.569885,399.775269  M469.428528,369.484741   C469.428528,369.484741 469.520752,369.433746 469.428528,369.484741  z" /><path fill="#CD6D2C" opacity="1.000000" stroke="none" d=" M521.598755,367.019226   C522.348389,367.474060 522.743347,367.900391 523.299927,368.573181   C522.846741,369.075531 522.059387,369.716309 521.642761,369.529694   C515.323669,366.698547 508.145172,365.244751 503.984222,358.468933   C505.812134,359.049438 507.661469,359.985870 509.928955,361.289734   C510.571960,361.837799 510.828033,361.942108 511.115265,361.970123   C514.491577,363.643646 517.867859,365.317200 521.598755,367.019226  z" /><path fill="#CD6D2C" opacity="1.000000" stroke="none" d=" M498.101196,355.455811   C495.850250,354.717529 493.483063,353.657623 491.334076,352.221710   C491.702209,351.754272 491.852203,351.662842 492.002228,351.571381   C493.996490,352.759003 495.990753,353.946594 498.101196,355.455811  z" /><path fill="#CD6D2C" opacity="1.000000" stroke="none" d=" M501.816040,356.899475   C499.929169,360.232849 499.536316,356.509491 498.208954,355.925110   C499.295532,355.952179 500.478638,356.306427 501.816040,356.899475  z" /><path fill="#D9752F" opacity="1.000000" stroke="none" d=" M511.005554,361.774475   C510.828033,361.942108 510.571960,361.837799 510.209778,361.502289   C510.392914,361.260956 510.667358,361.338104 511.005554,361.774475  z" /><path fill="#CD6D2C" opacity="1.000000" stroke="none" d=" M482.745758,347.044525   C483.457489,347.467682 484.169220,347.890839 485.017914,348.598328   C478.743042,349.257446 472.315460,349.471436 465.927917,350.095245   C463.723755,350.310516 461.401031,351.197144 459.509735,352.380219   C453.653656,356.043335 454.064636,359.903015 460.184052,363.278412   C462.348480,364.472229 464.065979,366.476257 465.655731,368.462799   C459.241669,366.175720 453.159424,363.536194 446.908752,360.665680   C443.644440,359.188538 440.548523,357.942413 436.936340,356.502838   C436.085693,356.856964 435.751221,357.404480 435.420197,357.918579   C435.423615,357.885162 435.445129,357.821472 435.787445,357.525146   C435.815796,356.464203 435.501801,355.699646 435.076813,354.714722   C434.702484,354.233337 434.397278,354.167725 433.729614,354.140717   C432.944397,353.890289 432.479675,353.796722 431.802948,353.436951   C426.787384,351.351532 421.983887,349.532288 416.893494,347.479401   C411.765839,345.951569 406.925049,344.657379 401.979034,343.191467   C401.623444,342.851135 401.367401,342.841919 401.009033,342.832001   C400.707153,342.464050 400.479858,342.436005 399.873291,342.400818   C398.984680,342.199829 398.453278,342.185760 397.664581,341.907654   C385.506134,338.226593 373.432037,336.181976 360.666382,336.945831   C359.898987,336.910919 359.455505,336.983521 358.652008,336.951050   C352.869354,337.015778 347.446777,337.185608 341.590454,337.272949   C333.750336,338.049072 326.343903,338.907684 318.791016,339.595886   C318.076660,339.672485 317.508728,339.919495 316.634338,340.349792   C315.860840,340.603180 315.393768,340.673248 314.722290,340.516541   C314.420532,339.124756 314.046051,337.895386 314.297699,336.811371   C314.594910,335.531250 315.433289,334.376770 316.058594,333.102814   C316.080109,333.037811 316.211975,333.074799 316.338806,333.031189   C316.627808,332.912384 316.770386,332.809967 317.197357,332.447205   C319.791351,331.184082 322.081451,330.154022 324.589081,329.099426   C325.177795,328.869720 325.548981,328.664581 326.171448,328.268127   C326.832306,328.001099 327.241821,327.925385 327.897797,327.858215   C328.485046,327.809113 328.756012,327.639801 328.957092,327.358795   C329.328125,327.201416 329.699188,327.044037 330.633545,326.864136   C331.458374,326.634583 331.719849,326.427582 331.981354,326.220612   C331.981354,326.220612 332.417511,325.994019 333.042847,326.009003   C336.163849,325.683624 338.738922,325.627686 341.142151,324.956451   C356.091217,320.781189 371.346436,319.687500 386.783417,319.863525   C388.859924,319.887207 390.952393,318.510864 393.410950,317.741211   C394.526520,317.791443 395.268616,317.883209 396.101196,318.360046   C396.694824,319.122925 397.181030,319.805084 397.703552,319.834076   C412.890839,320.676758 427.053986,325.782959 441.401703,330.158905   C442.788757,330.581909 444.446533,330.117310 446.300568,330.086914   C447.442932,330.340698 448.263367,330.572266 449.083801,330.803833   C449.920288,331.325562 450.756775,331.847290 451.858215,332.929230   C456.870789,335.972931 461.506775,338.710754 466.401642,340.858673   C470.248871,342.546936 474.415680,343.506836 478.440552,344.790253   C478.440552,344.790253 478.757050,344.788147 478.943237,345.228241   C480.334839,346.127045 481.540314,346.585785 482.745758,347.044525  z" /><path fill="#D27E42" opacity="1.000000" stroke="none" d=" M478.334900,344.560852   C474.415680,343.506836 470.248871,342.546936 466.401642,340.858673   C461.506775,338.710754 456.870789,335.972931 452.091431,333.121399   C460.148468,336.170197 468.237244,339.587006 476.693787,343.077942   C477.061584,343.152069 477.299622,343.406952 477.462219,343.466339   C477.826294,343.794312 478.027771,344.062897 478.334900,344.560852  z" /><path fill="#D27E42" opacity="1.000000" stroke="none" d=" M340.663635,322.943176   C351.043976,320.866180 361.078796,318.945892 372.001282,316.988342   C377.941437,316.915833 382.993988,316.880524 388.413727,316.914001   C390.199768,317.249420 391.618622,317.516083 393.037476,317.782776   C390.952393,318.510864 388.859924,319.887207 386.783417,319.863525   C371.346436,319.687500 356.091217,320.781189 341.142151,324.956451   C338.738922,325.627686 336.163849,325.683624 333.287781,325.988922   C335.377625,325.002502 337.847870,324.051178 340.663635,322.943176  z" /><path fill="#D27E42" opacity="1.000000" stroke="none" d=" M331.723816,326.219971   C331.719849,326.427582 331.458374,326.634583 330.937683,326.852936   C330.941101,326.649292 331.203705,326.434296 331.723816,326.219971  z" /><path fill="#D27E42" opacity="1.000000" stroke="none" d=" M327.897797,327.858215   C327.651367,327.849701 327.714203,327.399139 327.693909,327.172241   C327.890106,327.006439 328.106567,327.067535 328.640045,327.243713   C328.756012,327.639801 328.485046,327.809113 327.897797,327.858215  z" /><path fill="#CD6D2C" opacity="1.000000" stroke="none" d=" M488.876251,349.846558   C489.143646,350.145416 489.107269,350.308502 489.083313,350.721924   C487.785553,350.501801 486.475342,350.031342 485.137939,349.180786   C485.585022,348.784821 486.059204,348.768951 486.858765,349.097260   C487.184143,349.441467 487.516235,349.741699 487.516235,349.741699   C487.516235,349.741699 487.924683,349.558075 487.924683,349.558075   C488.140594,349.608978 488.356537,349.659882 488.876251,349.846558  z" /><path fill="#CD6D2C" opacity="1.000000" stroke="none" d=" M469.474640,369.459229   C469.520752,369.433746 469.428528,369.484741 469.474640,369.459229  z" /><path fill="#D27E42" opacity="1.000000" stroke="none" d=" M482.601990,346.764404   C481.540314,346.585785 480.334839,346.127045 479.066345,345.327637   C480.154938,345.486053 481.306549,345.985138 482.601990,346.764404  z" /><path fill="#D27E42" opacity="1.000000" stroke="none" d=" M396.101196,318.360046   C397.716064,317.982758 399.421387,317.990570 401.552063,317.963348   C406.635986,318.735809 411.294586,319.543304 416.377014,320.355774   C421.609375,321.560547 426.417877,322.760345 431.614929,323.971558   C436.503784,325.835999 441.004089,327.689026 445.741516,329.803406   C444.446533,330.117310 442.788757,330.581909 441.401703,330.158905   C427.053986,325.782959 412.890839,320.676758 397.703552,319.834076   C397.181030,319.805084 396.694824,319.122925 396.101196,318.360046  z" /><path fill="#D27E42" opacity="1.000000" stroke="none" d=" M314.722290,340.516571   C313.814484,341.301331 312.702271,341.859314 310.942444,342.637573   C305.880341,344.271210 301.465790,345.684601 296.787262,346.975800   C296.172302,346.375702 295.466339,345.530792 295.523834,345.475159   C296.328796,344.696655 297.237946,344.025848 298.121704,343.328857   C300.674835,341.439087 303.227936,339.549316 306.304504,337.352020   C309.198608,335.573029 311.569214,334.101532 314.282837,332.743164   C315.096252,332.960175 315.566650,333.063995 316.037048,333.167816   C315.433289,334.376770 314.594910,335.531250 314.297699,336.811371   C314.046051,337.895386 314.420532,339.124756 314.722290,340.516571  z" /><path fill="#D27E42" opacity="1.000000" stroke="none" d=" M318.791016,339.595886   C318.442566,339.977844 317.947662,340.189362 317.196777,340.283691   C317.508728,339.919495 318.076660,339.672485 318.791016,339.595886  z" /><path fill="#D27E42" opacity="1.000000" stroke="none" d=" M324.589081,329.099426   C324.371552,329.123993 324.280365,328.766754 324.230347,328.591278   C324.572418,328.370331 324.964447,328.324860 325.638336,328.369415   C325.548981,328.664581 325.177795,328.869720 324.589081,329.099426  z" /><path fill="#D27E42" opacity="1.000000" stroke="none" d=" M316.338806,333.031189   C316.205231,332.809906 316.327850,332.637329 316.736633,332.618713   C316.770386,332.809967 316.627808,332.912384 316.338806,333.031189  z" /></svg>
